<svg id="Group_3" data-name="Group 3" xmlns="http://www.w3.org/2000/svg" xmlns:xlink="http://www.w3.org/1999/xlink" width="58" height="19.98" viewBox="0 0 58 19.98">
  <defs>
    <clipPath id="clip-path">
      <path id="Clip_2" data-name="Clip 2" d="M0,0H58V19.981H0Z" fill="none"/>
    </clipPath>
  </defs>
  <path id="Clip_2-2" data-name="Clip 2" d="M0,0H58V19.981H0Z" fill="none"/>
  <g id="Group_3-2" data-name="Group 3" clip-path="url(#clip-path)">
    <path id="Fill_1" data-name="Fill 1" d="M16.828,19.98H3.2a3.2,3.2,0,0,1-3.2-3.2V3.2A3.224,3.224,0,0,1,.942.936,3.182,3.182,0,0,1,3.2,0H16.828a3.2,3.2,0,0,1,3.2,3.2V13.56a23.2,23.2,0,0,1-3.538-1.015c-.5-.166-1.1-.385-1.828-.654l-.049-.018-.008,0-.1-.038-.011,0-.107-.039c-.289-.107-.552-.2-.969-.353a15.922,15.922,0,0,0,1.671-4.213H11.141V5.8h4.836V5.013H11.141V2.649H9.167a.338.338,0,0,0-.348.341V5.013H3.928V5.8H8.819V7.224H4.781v.792h7.832a13.479,13.479,0,0,1-1.128,2.75A19.95,19.95,0,0,0,5.719,9.542a5.042,5.042,0,0,0-1.191.127,3.991,3.991,0,0,0-2.206,1.246,3.411,3.411,0,0,0-.532,3.643A3.485,3.485,0,0,0,3.23,16.085a5.076,5.076,0,0,0,2.556.616,8.436,8.436,0,0,0,6.4-3.481c2.652,1.271,7.784,3.405,7.832,3.425l.008,0v.131a3.2,3.2,0,0,1-3.2,3.2ZM48.6,18.448h-.853l1.673-4.559h.649l1.68,4.557H50.9l-.3-.917H48.914l-.317.918Zm1.169-3.384-.654,1.89H50.4Zm-6.443,3.384H42.5V13.889h1.773a1.406,1.406,0,1,1,0,2.806h-.951v1.752Zm0-3.939v1.56h.905a.74.74,0,0,0,.726-.776.751.751,0,0,0-.726-.784Zm-7.97,3.939H32.6V13.889h.82v3.938h1.938v.62Zm-8.6,0h-.854l1.673-4.559h.651l1.679,4.557h-.852l-.3-.917H27.076l-.317.918Zm1.169-3.384h0l-.654,1.89h1.284l-.63-1.89Zm11.255,3.383h-.82V13.889h.82v4.557Zm16.637,0H55V16.575l-1.379-2.686h.885l.908,1.941.894-1.941H57.2l-1.375,2.676,0,.01v1.871ZM5.411,15.364a4.18,4.18,0,0,1-2.077-.487A2.276,2.276,0,0,1,2.3,13.718a1.919,1.919,0,0,1,.615-2.142,3.957,3.957,0,0,1,1.954-.723,4.975,4.975,0,0,1,.586-.028,11.833,11.833,0,0,1,5,1.535,8.811,8.811,0,0,1-2.375,2.2A5.13,5.13,0,0,1,5.411,15.364ZM35.2,12.448h-.007a18.876,18.876,0,0,1-5.2-2.035,18.623,18.623,0,0,1-5.28,2.036v-.94a15.964,15.964,0,0,0,4.124-1.846,10.166,10.166,0,0,1-2.918-3.12h1.826a8.628,8.628,0,0,0,2.231,2.275,6.8,6.8,0,0,0,2.244-3.056H25.411V4.978h3.417V3.717H24.78V2.931h4.048V1.708a.366.366,0,0,1,.36-.373h1.818v1.6h4.077v.785H31.006V4.978h3.516a8.492,8.492,0,0,1-3.355,4.657A21.99,21.99,0,0,0,35.2,11.558v.89Zm3.651-.167H37.09V6.368H35.479L37.58,1.4h1.96L38.213,4.44h.638V12.28Zm6.408-.143H42.888v-.8h.928a.319.319,0,0,0,.3-.289V4.174H39.6V3.4h4.511V1.492h1.829V3.4h.745v.77h-.744v7.251A.725.725,0,0,1,45.259,12.138Zm12.74-.1H47.935v-.77h3.937V8.03H47.935V7.26h3.936V5.738H47.934v-.77h9.828v.77H53.825V7.26h3.937v.77H53.825v3.235h2l-.493-1.67h1.7a.334.334,0,0,1,.317.239L58,12.007l-.009,0,.007.025ZM43.185,8.983h-1.8L40.2,5.24h1.525a.407.407,0,0,1,.363.232l1.1,3.51Zm6.8-4.716H47.935V2.361h3.842V1.3H53.92V2.362h3.313a.544.544,0,0,1,.382.17.552.552,0,0,1,.149.391V4.266H55.722l0-1.134H49.984V4.267Z" transform="translate(0 0)" fill="#108ee9"/>
  </g>
</svg>
